<?xml version="1.0" encoding="utf-8"?>
<!-- Generator: Adobe Illustrator 18.1.0, SVG Export Plug-In . SVG Version: 6.00 Build 0)  -->
<svg version="1.1" id="Calque_1" xmlns="http://www.w3.org/2000/svg" xmlns:xlink="http://www.w3.org/1999/xlink" x="0px" y="0px"
	 width="600px" height="600px" viewBox="0 0 600 600" enable-background="new 0 0 600 600" xml:space="preserve">
<g>
	<path fill="#FFFFFF" d="M18,50H2c-1.1,0-2-0.9-2-2V32c0-1.1,0.9-2,2-2h16c1.1,0,2,0.9,2,2v16C20,49.1,19.1,50,18,50z"/>
	<path fill="#CCCCCC" d="M18,31c0.6,0,1,0.4,1,1v16c0,0.6-0.4,1-1,1H2c-0.6,0-1-0.4-1-1V32c0-0.6,0.4-1,1-1H18 M18,30H2
		c-1.1,0-2,0.9-2,2v16c0,1.1,0.9,2,2,2h16c1.1,0,2-0.9,2-2V32C20,30.9,19.1,30,18,30L18,30z"/>
</g>
<g>
	<circle fill="#FFFFFF" cx="10" cy="10" r="10"/>
	<path fill="#CCCCCC" d="M10,1c5,0,9,4,9,9s-4,9-9,9s-9-4-9-9S5,1,10,1 M10,0C4.5,0,0,4.5,0,10s4.5,10,10,10s10-4.5,10-10
		S15.5,0,10,0L10,0z"/>
</g>
<g>
	<path fill="#FFFFFF" d="M48,50H32c-1.1,0-2-0.9-2-2V32c0-1.1,0.9-2,2-2h16c1.1,0,2,0.9,2,2v16C50,49.1,49.1,50,48,50z"/>
	<path fill="#CCCCCC" d="M48,31c0.6,0,1,0.4,1,1v16c0,0.6-0.4,1-1,1H32c-0.6,0-1-0.4-1-1V32c0-0.6,0.4-1,1-1H48 M48,30H32
		c-1.1,0-2,0.9-2,2v16c0,1.1,0.9,2,2,2h16c1.1,0,2-0.9,2-2V32C50,30.9,49.1,30,48,30L48,30z"/>
</g>
<path fill="#8DEF12" d="M71.7,38c0.4,0.3,0.4,0.8,0,1.2l-5.1,4.6c-0.4,0.3-0.9,0.3-1.3,0l-5.1-4.6c-0.4-0.3-0.4-0.8,0-1.2H71.7z"/>
<g>
	<circle fill="#FFFFFF" cx="40" cy="10" r="10"/>
	<path fill="#CCCCCC" d="M40,1c5,0,9,4,9,9s-4,9-9,9s-9-4-9-9S35,1,40,1 M40,0c-5.5,0-10,4.5-10,10s4.5,10,10,10s10-4.5,10-10
		S45.5,0,40,0L40,0z"/>
</g>
<circle fill="#8DEF12" cx="40" cy="10" r="8"/>
<path fill="#8DEF12" d="M38.8,45.4L33,39.6c-0.4-0.4-0.4-1,0-1.4s1-0.4,1.4,0l4.4,4.4l7.6-7.6c0.4-0.4,1-0.4,1.4,0s0.4,1,0,1.4
	L38.8,45.4z"/>
</svg>
